# xmcd
#
# Track frame offsets:
#	182
#	13920
#	26430
#	38990
#	57175
#	74315
#	91512
#	110372
#	125287
#	138630
#	153035
#	168480
#	183425
#	196992
#	213405
#	228542
#	242477
#	258530
#	276845
#	300442
#
# Disc length: 4237 seconds
#
# Revision: 0
# Processed by: cddbd v1.5.1PL0 Copyright (c) Steve Scherf et al.
# Submitted via: dBpowerAMP V4.0
#
DISCID=0d108b14
DTITLE=Tim McGraw\Faith HIll - Tour Sampler
DYEAR=1995
DGENRE=Country
TTITLE0=Indian Outlaw/Tim McGraw
TTITLE1=Wild One/Faith Hill
TTITLE2=Refried Dreams/Tim McGraw
TTITLE3=Piece of my Heart/Faith Hill
TTITLE4=Not a Moment Too Soon/Tim McGraw
TTITLE5=But I Will/Faith Hill
TTITLE6=Don't Take the Girl/Tim McGraw
TTITLE7=Take Me As I Am/Faith Hill
TTITLE8=Down on The Farm/Tim McGraw
TTITLE9=Let's Go To Vegas/Faith Hill
TTITLE10=I Like It,I Love It/Tim McGraw
TTITLE11=It Matters To Me/Faith Hill
TTITLE12=Renegade/Tim McGraw
TTITLE13=Someone Else's Dream/Faith Hill
TTITLE14=Can't Be Really Gone/Tim McGraw
TTITLE15=Bed of Roses/Faith Hill
TTITLE16=All I Want/Tim McGraw
TTITLE17=I Can't Do That Anymore/Faith Hill
TTITLE18=When She Wakes Up/Tim McGraw
TTITLE19=You Can't Lose Me/Faith Hill
EXTD=\n
EXTT0=
EXTT1=
EXTT2=
EXTT3=
EXTT4=
EXTT5=
EXTT6=
EXTT7=
EXTT8=
EXTT9=
EXTT10=
EXTT11=
EXTT12=
EXTT13=
EXTT14=
EXTT15=
EXTT16=
EXTT17=
EXTT18=
EXTT19=
PLAYORDER=
